<svg xmlns="http://www.w3.org/2000/svg" viewBox="0 0 64 64" role="img" aria-label="BPMN">
  <defs>
    <linearGradient id="gradient" x1="0%" y1="0%" x2="100%" y2="100%">
      <stop offset="0%" stop-color="#6366f1" />
      <stop offset="100%" stop-color="#8b5cf6" />
    </linearGradient>
  </defs>
  <rect width="64" height="64" rx="16" fill="url(#gradient)" />
  <path
    d="M22 20h20a6 6 0 0 1 6 6v12a6 6 0 0 1-6 6H22a6 6 0 0 1-6-6V26a6 6 0 0 1 6-6zm0 6v12a0 0 0 0 0 0 0h20a0 0 0 0 0 0 0V26a0 0 0 0 0 0 0H22a0 0 0 0 0 0 0zm5-3h10a3 3 0 0 1 0 6H27a3 3 0 0 1 0-6zm0 12h10a3 3 0 0 1 0 6H27a3 3 0 0 1 0-6z"
    fill="#fff"
    fill-rule="evenodd"
  />
</svg>
